<svg width="194" height="234" viewBox="0 0 194 234" fill="none" xmlns="http://www.w3.org/2000/svg">
<path d="M119.273 33.7528C115.419 23.6893 106.013 21.7301 102.143 21.334C98.0067 21.7322 95.4201 22.5138 94.4352 23.6893C89.26 25.4258 86.9668 28.008 85.2281 30.7552C80.8473 29.282 77.3058 29.5604 74.5223 31.3975C72.7515 32.8963 71.7387 34.6949 71.9528 36.9646C72.0406 39.5062 73.1176 41.0692 75.1646 41.6752C77.2758 41.718 79.6611 43.8163 79.6611 43.8163C77.734 47.3643 71.3105 48.6233 71.3105 47.8846C72.8286 49.7388 75.2888 50.6339 78.8046 50.454C73.0877 52.2397 69.0323 54.4923 68.527 57.734C61.7137 63.1512 61.1913 65.9497 62.9599 67.7975C63.6365 72.7843 64.902 74.9619 66.5999 75.0775C67.6855 78.831 69.6361 80.7174 72.5952 80.4305C76.3337 80.1478 90.686 77.1309 92.0799 74.8634" fill="#FF8641"/>
<path d="M106.212 52.5952C106.12 53.6914 90.5811 66.0846 89.9388 66.5128C89.2964 66.941 86.6628 68.2001 84.3717 69.9387C82.5517 70.1121 81.055 74.2403 80.9458 79.1458C74.5223 98.4164 58.4635 100.558 51.1835 106.553C47.1859 109.03 44.5694 113.557 42.4047 118.758C40.3127 124.699 37.7926 130.363 34.0541 135.245C31.5318 139.174 26.9111 143.167 20.7788 147.235C11.7858 151.151 6.19306 154.817 2.15052 158.369C0.354074 160.782 -0.418891 163.08 0.223462 165.221C2.38819 164.15 4.9833 163.765 8.35994 164.579C15.8219 166.197 22.0078 169.765 26.7741 175.499C26.7548 182.314 28.9902 188.708 32.9835 194.769C37.4799 202.906 45.9033 224.87 77.0917 221.106L80.9887 221.416L116.489 52.5952L117.097 48.741C106.248 47.4049 107.496 36.1081 106.212 52.5952ZM98.9317 100.986C97.5207 105.495 95.4459 108.431 93.1506 110.835C90.2664 113.674 85.7699 116.12 80.3035 118.329C73.8157 120.95 65.1761 122.385 55.8941 123.468C53.406 123.338 51.3362 122.196 49.6847 120.042C60.3905 108.266 69.634 107.703 78.5905 99.2728C82.6352 93.3075 86.9411 87.8818 91.8658 83.6422C91.489 85.6635 92.4461 87.9032 94.2211 90.2799C95.9647 92.438 98.1565 94.1914 100.645 95.4187L98.9317 100.986Z" fill="#EFCEA1"/>
<path d="M116.528 52.7258C116.843 51.7687 116.727 50.8565 116.703 50.2399L116.528 52.7258Z" fill="#EFCEA1"/>
<path d="M184.579 185.348C182.827 182.261 179.654 182.314 176.014 183.421C160.06 174.856 147.001 164.752 137.045 153.016C131.598 146.689 126.688 140.043 123.341 132.461C120.986 128.085 119.517 123.365 119.915 117.901C118.594 110.976 117.588 107.73 116.704 108.052C122.444 98.5491 127.035 89.2671 129.336 80.4305C130.887 74.7778 133.634 68.2258 130.193 66.2987C127.546 65.545 125.891 65.151 116.918 61.8022C116.307 61.5132 114.151 59.2564 113.492 58.5905L79.2329 221.106C84.5859 227.743 114.614 221.748 132.12 233.096C136.563 233.047 139.942 232.531 140.899 230.955C144.218 231.512 147.29 231.812 149.892 231.598C155.789 230.204 161.39 228.011 166.593 224.746C170.137 221.029 172.625 217.305 172.802 212.755C173.246 208.781 175.751 206.743 178.155 204.619C181.795 202.953 184.489 200.039 186.078 195.626C186.568 191.919 186.27 188.438 184.579 185.348Z" fill="#EFCEA1"/>
<path d="M114.991 59.8751C114.776 60.7316 115.419 57.7339 115.633 56.4492C115.676 56.1944 115.74 55.3979 115.847 55.1645L116.528 52.7257C115.727 55.1645 115.633 57.948 114.991 59.8751Z" fill="#EFCEA1"/>
<path d="M176.014 183.421C174.256 183.672 173.126 184.794 171.089 186.847C169.47 188.447 168.163 190.335 167.235 192.414C165.428 193.114 164.623 195.866 164.238 199.48C162.441 201.388 162.015 203.548 162.739 205.903C164.007 209.543 164.446 213.42 164.024 217.252C163.304 220.752 154.174 231.317 151.177 231.383" fill="#EFCEA1"/>
<path d="M86.3887 115.537C92.8786 116.687 98.6491 118.449 102.358 121.961C105.334 125.25 107.419 129.114 108.995 133.309C110.402 129.241 111.905 125.414 114.134 123.46C116.102 120.736 118.04 118.65 119.915 117.892" fill="#EFCEA1"/>
<path d="M0.00878906 165.221C6.90124 168.373 11.7553 172.18 14.1406 176.783C14.6502 179.126 23.1335 177.64 26.7735 175.499C24.8828 165.964 29.2551 151.569 43.2606 127.322" fill="#EFCEA1"/>
<path d="M77.0918 221.106C49.5969 211.747 40.5141 179.719 47.9718 127.322Z" fill="#EFCEA1"/>
<path d="M104.499 42.7457C104.994 43.4395 104.871 44.1546 104.285 44.8869L103.214 45.5293C101.829 45.8868 100.473 45.5293 99.146 44.4587C97.6921 43.2382 97.2489 41.8893 97.8612 40.3904C97.8612 40.3904 95.0777 38.6775 97.0048 31.6116C98.9318 24.5457 111.565 24.5457 111.565 24.5457C115.346 27.1558 117.988 30.1941 119.273 33.7528C121.414 39.6089 121.236 37.9538 121.628 46.5998C121.842 47.7497 121.718 48.8374 120.986 49.8116C120.38 50.5803 119.196 50.6681 117.774 50.454L110.494 48.741C108.372 48.5269 107.366 47.9595 106.854 47.2422L104.499 42.7457Z" fill="#EFCEA1"/>
<path d="M126.767 17.0516C126.767 17.0516 122.056 16.8375 121.628 13.1975C121.2 9.55749 120.129 11.0563 119.915 9.12925C119.701 7.20219 120.772 5.48925 121.628 5.27513C122.485 5.06101 123.769 5.27513 123.769 5.27513C123.769 5.27513 123.769 2.06337 129.765 1.2069C135.76 0.350425 138.758 2.06337 140.685 1.2069C142.612 0.350425 146.466 -0.291928 148.393 0.136307C150.32 0.564543 156.315 4.41866 157.172 9.34337C158.028 14.2681 157.6 20.0493 157.172 21.9763C156.744 23.9034 155.673 27.7575 156.315 28.8281C156.958 29.8987 165.308 46.5998 169.162 48.3128C173.016 50.0257 176.871 50.8822 178.155 52.8093C179.44 54.7363 182.438 61.374 182.652 75.2916C182.866 89.2093 182.652 91.7787 182.652 91.7787C182.652 91.7787 172.588 102.27 171.089 102.699C169.591 103.127 173.231 114.689 173.231 114.689C173.231 114.689 183.722 121.541 184.793 125.609C185.864 129.678 183.08 131.176 183.08 131.176C183.08 131.176 183.722 133.532 183.294 134.602C182.866 135.673 181.581 136.958 181.581 136.958L194 184.706C194 184.706 186.896 192.737 186.078 189.845C183.294 179.995 176.014 183.635 176.014 183.635L142.398 163.936L128.052 141.24C128.052 141.24 129.336 131.605 133.191 127.322C137.045 123.04 136.831 112.548 135.974 108.052C135.118 103.555 131.049 88.781 131.049 88.781C131.049 88.781 122.913 95.2046 119.915 96.4893C116.918 97.774 99.7882 102.056 98.5035 101.628C97.2188 101.2 95.2917 99.4869 95.2917 97.9881C95.2917 96.4893 95.5059 93.4916 98.2894 91.9928C101.073 90.494 111.779 82.5716 113.278 80.8587C114.776 79.1457 125.696 71.4375 126.553 69.9387C127.409 68.4399 124.84 61.8022 126.553 58.3763C128.266 54.9504 128.052 53.0234 132.334 50.454C136.616 47.8846 140.471 45.7434 140.471 45.7434C140.471 45.7434 135.332 46.3857 134.689 45.5293C134.047 44.6728 131.906 41.6751 131.264 38.8916C130.621 36.1081 128.908 29.8987 128.266 29.8987C127.624 29.8987 125.911 22.6187 125.911 21.5481C125.911 20.6402 126.767 17.0516 126.767 17.0516Z" fill="#FF8641"/>
<path d="M125.5 21.5C125.5 21.5 126.787 14.3565 128.5 13.5C130.213 12.6435 134.689 13.1975 137.045 14.9104C138.055 15.6448 139.331 17.4584 140.513 19.5546C142.085 22.3382 143.494 25.627 143.896 27.5434C144.753 31.6116 142.184 30.9693 141.327 36.7504L139.186 41.0328L134.5 46" fill="#EFCEA1"/>
<path d="M125.5 21.5C125.5 21.5 126.787 14.3565 128.5 13.5C130.213 12.6435 134.689 13.1975 137.045 14.9104C138.055 15.6448 139.331 17.4584 140.513 19.5546C142.085 22.3382 143.494 25.627 143.896 27.5434C144.753 31.6116 142.184 30.9693 141.327 36.7504L139.186 41.0328L134.5 46L131 39C129 34.5 129.5 32.5 129 30.5C127.5 29.375 127.5 29 127.5 28.5L125.5 21.5Z" fill="#EFCEA1"/>
<path d="M140.256 18.9787C140.256 18.9787 142.398 15.5528 143.682 16.8375C144.967 18.1222 145.609 20.0493 145.609 21.7622C145.609 23.4752 143.682 26.901 143.682 26.901" fill="#EFCEA1"/>
<path d="M145.105 23C144.236 24.3919 149.015 34.8258 150.101 34.9705C154.228 35.5273 156 28.0109 156 28.0109" fill="#EFCEA1"/>
</svg>
