<svg width="1443" height="911" viewBox="0 0 1443 911" fill="none" xmlns="http://www.w3.org/2000/svg">
<mask id="mask0" mask-type="alpha" maskUnits="userSpaceOnUse" x="3" y="-47" width="1440" height="958">
<rect x="3" y="-47" width="1440" height="958" fill="#C4C4C4"/>
</mask>
<g mask="url(#mask0)">
<path d="M71 31H1511V867H776H71V31Z" fill="url(#paint0_linear)"/>
<path d="M473.5 457C589.5 463 640 567 640 567L704.266 662.5L971 741L1523 843C1472.43 930.595 754.839 801.706 704.266 889.301L344 681.301C344 681.301 357.5 451 473.5 457Z" fill="#266061"/>
<path d="M457 604.5C587.088 636 617.322 708.938 617.322 708.938L681.588 804.438L1500.32 984.938C1449.75 1072.53 732.161 943.644 681.588 1031.24L321.322 823.238C321.322 823.238 326.912 573 457 604.5Z" fill="#1B4E4F"/>
<path d="M274.522 456.546L454.655 664.546C454.655 664.546 546.554 644.546 634.788 664.546C723.022 684.546 799.521 888.847 799.521 888.847L505.288 888.847L-52.9785 878.847C-4.0248 643.586 99.6533 579.611 274.522 456.546Z" fill="#0F2228"/>
<path d="M383.614 219.277L383.901 220.322L388.346 212.165L305.361 178.085L223.239 215.76L224.507 327.374L208.846 315.007L94.8145 342.616L92.749 108.291L102.462 97.3619L-25.0479 50L-105.196 115.572L-111 689.327L-30.0678 711.014L390.411 684.438L383.901 220.322" fill="#16272D"/>
<path d="M383.614 219.277L383.901 220.322M383.901 220.322L388.346 212.165L305.361 178.085L223.239 215.76L224.507 327.374L208.846 315.007L94.8145 342.616L92.749 108.291L102.462 97.3619L-25.0479 50L-105.196 115.572L-111 689.327L-30.0678 711.014L390.411 684.438L383.901 220.322Z" stroke="#266061" stroke-miterlimit="10"/>
<path d="M306.067 393.037L224.507 327.374" stroke="#16272D" stroke-miterlimit="10"/>
<g opacity="0.5">
<path opacity="0.3" d="M178.335 516.455V404.031C178.335 404.031 175.446 371.35 206.127 376.226C229.985 379.978 226.39 422.712 226.39 422.712L229.985 524.743L178.335 516.455Z" fill="#266061" stroke="#266061" stroke-width="2" stroke-miterlimit="10"/>
<path opacity="0.3" d="M253.28 524.704V450.19C253.28 450.19 251.75 426.947 276.523 426.947C301.295 426.947 297.439 475.826 297.439 475.826L297.648 534.312L253.28 524.704Z" fill="#266061" stroke="#266061" stroke-width="2" stroke-miterlimit="10"/>
<path opacity="0.3" d="M103.442 509.357V427C103.442 427 106.318 399.155 131.287 399.155C156.256 399.155 157.223 450.243 157.223 450.243V516.115L103.442 509.357Z" fill="#266061" stroke="#266061" stroke-width="2" stroke-miterlimit="10"/>
<path opacity="0.3" d="M182.27 695.275V595.401C182.27 595.401 182.152 569.896 209.108 569.857C238.247 569.857 232.887 648.135 232.887 648.135L233.227 690.307L182.27 695.275Z" fill="#266061" stroke="#266061" stroke-width="2" stroke-miterlimit="10"/>
<path opacity="0.3" d="M103.442 699.38V588.498C103.442 588.498 103.442 558.954 135.026 564.968C160.53 569.844 157.249 628.487 157.249 628.487V695.262L103.442 699.38Z" fill="#266061" stroke="#266061" stroke-width="2" stroke-miterlimit="10"/>
<path opacity="0.3" d="M257.163 690.307V594.538C257.163 594.538 259.777 567.334 281.138 575.622C298.498 582.341 297.674 618.212 297.674 618.212V689.327L257.163 690.307Z" fill="#266061" stroke="#266061" stroke-width="2" stroke-miterlimit="10"/>
<path opacity="0.3" d="M323.388 285.594V233.735C323.388 233.735 321.467 222.205 329.153 222.205C336.84 222.205 338.762 236.585 338.762 236.585V291.829L323.388 285.594Z" fill="#266061" stroke="#266061" stroke-width="2" stroke-miterlimit="10"/>
<path opacity="0.3" d="M355.076 296.81V252.193C355.076 252.193 352.762 231.042 360.031 233.016C367.299 234.99 368.306 247.893 368.306 247.893V302.797L355.076 296.81Z" fill="#266061" stroke="#266061" stroke-width="2" stroke-miterlimit="10"/>
<path opacity="0.3" d="M293.596 287.202V238.637C293.596 238.637 294.263 224.1 283.36 224.427C272.458 224.754 275.517 255.801 275.517 255.801V293.15L293.596 287.202Z" fill="#266061" stroke="#266061" stroke-width="2" stroke-miterlimit="10"/>
<path opacity="0.3" d="M259.555 298.47V246.18C259.555 246.18 259.228 237.251 250.3 237.251C241.371 237.251 242.704 267.828 242.704 267.828L242.626 308.118L259.555 298.47Z" fill="#266061" stroke="#266061" stroke-width="2" stroke-miterlimit="10"/>
<path opacity="0.3" d="M347.795 681.261V653.234C347.795 653.234 347.363 627.951 354.514 631.86C360.684 635.233 359.978 656.005 359.978 656.005L359.743 680.229L347.795 681.261Z" fill="#266061" stroke="#266061" stroke-width="2" stroke-miterlimit="10"/>
<path opacity="0.3" d="M365.391 679.562L364.227 643.298C364.227 643.298 364.227 631.35 372.071 633.795C378.973 635.912 377.823 664.188 377.823 664.188L378.071 678.568L365.391 679.562Z" fill="#266061" stroke="#266061" stroke-width="2" stroke-miterlimit="10"/>
<path opacity="0.3" d="M54.917 202.413V134.985C54.917 134.985 55.8713 128.305 63.8194 128.945C71.7675 129.586 70.1857 145.482 70.1857 145.482L70.3165 207.185L54.917 202.413Z" fill="#266061" stroke="#266061" stroke-width="2" stroke-miterlimit="10"/>
<path opacity="0.3" d="M23.9741 192.766L42.3541 200.243L43.3085 138.057C43.3085 138.057 43.0732 120.736 34.9943 120.017C26.9155 119.298 25.5036 127.86 25.5036 127.86L23.9741 192.766Z" fill="#266061" stroke="#266061" stroke-width="2" stroke-miterlimit="10"/>
<path opacity="0.3" d="M11.0192 189.157V124.762C11.0192 124.762 12.9278 110.997 3.17564 110.055C-6.57649 109.114 -6.78564 114.565 -6.78564 114.565V184.817L11.0192 189.157Z" fill="#266061" stroke="#266061" stroke-width="2" stroke-miterlimit="10"/>
<path opacity="0.3" d="M30.0267 689.327V637.272C30.0267 637.272 29.007 626.984 37.7526 625.441C49.1388 623.441 46.485 647.9 46.485 647.9L45.8053 689.327H30.0267Z" fill="#266061" stroke="#266061" stroke-width="2" stroke-miterlimit="10"/>
<path opacity="0.3" d="M18.7058 689.327V641.364C18.7058 641.364 19.2418 625.441 9.55503 625.441C0.992499 625.441 0.770264 647.9 0.770264 647.9V690.307L18.7058 689.327Z" fill="#266061" stroke="#266061" stroke-width="2" stroke-miterlimit="10"/>
</g>
<g opacity="0.3">
<path opacity="0.3" d="M306.067 189.105L319.192 684.438" stroke="#3E858B" stroke-width="1.5" stroke-miterlimit="10"/>
<path opacity="0.3" d="M344.174 302.758L354.723 602.251" stroke="#3E858B" stroke-width="1.5" stroke-miterlimit="10"/>
<path opacity="0.3" d="M354.723 308.052L364.227 602.251" stroke="#3E858B" stroke-width="1.5" stroke-miterlimit="10"/>
<path opacity="0.3" d="M265.281 313.831V360.199" stroke="#3E858B" stroke-width="1.5" stroke-miterlimit="10"/>
<path opacity="0.3" d="M275.085 308.052V368.095" stroke="#3E858B" stroke-width="1.5" stroke-miterlimit="10"/>
<path opacity="0.3" d="M11.1763 214.205L9.73828 574.053" stroke="#3E858B" stroke-width="1.5" stroke-miterlimit="10"/>
<path opacity="0.3" d="M46.7598 580.55V222.009" stroke="#3E858B" stroke-width="1.5" stroke-miterlimit="10"/>
</g>
<path d="M285.273 570.753C281.419 560.689 272.013 558.73 268.143 558.334C264.007 558.732 261.42 559.514 260.435 560.689C255.26 562.426 252.967 565.008 251.228 567.755C246.847 566.282 243.306 566.56 240.522 568.398C238.752 569.896 237.739 571.695 237.953 573.965C238.041 576.506 239.118 578.069 241.165 578.675C243.276 578.718 245.661 580.816 245.661 580.816C243.734 584.364 237.31 585.623 237.31 584.885C238.829 586.739 241.289 587.634 244.805 587.454C239.088 589.24 235.032 591.492 234.527 594.734C227.714 600.151 227.191 602.95 228.96 604.798C229.637 609.784 230.902 611.962 232.6 612.078C233.685 615.831 235.636 617.717 238.595 617.43C242.334 617.148 256.686 614.131 258.08 611.863" fill="#FF8641"/>
<path d="M272.212 589.595C272.12 590.691 256.581 603.085 255.939 603.513C255.296 603.941 252.663 605.2 250.372 606.939C248.552 607.112 247.055 611.24 246.946 616.146C240.522 635.416 224.463 637.558 217.183 643.553C213.186 646.03 210.569 650.557 208.405 655.758C206.313 661.699 203.793 667.363 200.054 672.245C197.532 676.174 192.911 680.167 186.779 684.235C177.786 688.151 172.193 691.817 168.151 695.369C166.354 697.782 165.581 700.08 166.223 702.221C168.388 701.15 170.983 700.765 174.36 701.579C181.822 703.197 188.008 706.765 192.774 712.499C192.755 719.314 194.99 725.708 198.983 731.769C203.48 739.906 211.903 761.87 243.092 758.106L246.989 758.416L282.489 589.595L283.097 585.741C272.248 584.405 273.496 573.108 272.212 589.595ZM264.932 637.986C263.521 642.495 261.446 645.431 259.151 647.835C256.266 650.674 251.77 653.12 246.303 655.329C239.816 657.95 231.176 659.385 221.894 660.468C219.406 660.338 217.336 659.196 215.685 657.042C226.391 645.266 235.634 644.703 244.591 636.273C248.635 630.308 252.941 624.882 257.866 620.642C257.489 622.664 258.446 624.903 260.221 627.28C261.965 629.438 264.156 631.191 266.645 632.419L264.932 637.986Z" fill="#EFCEA1"/>
<path d="M282.528 589.726C282.843 588.769 282.727 587.857 282.703 587.24L282.528 589.726Z" fill="#EFCEA1"/>
<path d="M350.579 722.348C348.827 719.261 345.654 719.314 342.014 720.421C326.06 711.856 313.001 701.752 303.045 690.016C297.598 683.689 292.688 677.043 289.341 669.461C286.986 665.085 285.517 660.365 285.915 654.901C284.594 647.976 283.588 644.73 282.704 645.052C288.444 635.549 293.035 626.267 295.336 617.43C296.887 611.778 299.634 605.226 296.193 603.299C293.546 602.545 291.891 602.151 282.918 598.802C282.307 598.513 280.151 596.256 279.492 595.59L245.233 758.106C250.586 764.743 280.614 758.748 298.12 770.096C302.563 770.047 305.942 769.531 306.899 767.955C310.218 768.512 313.29 768.812 315.892 768.598C321.789 767.204 327.39 765.011 332.593 761.746C336.137 758.029 338.625 754.305 338.802 749.755C339.246 745.781 341.751 743.743 344.155 741.619C347.795 739.953 350.489 737.039 352.078 732.626C352.568 728.919 352.27 725.438 350.579 722.348Z" fill="#EFCEA1"/>
<path d="M280.991 596.875C280.776 597.732 281.419 594.734 281.633 593.449C281.676 593.194 281.74 592.398 281.847 592.165L282.528 589.726C281.727 592.165 281.633 594.948 280.991 596.875Z" fill="#EFCEA1"/>
<path d="M342.014 720.421C340.256 720.672 339.126 721.794 337.089 723.847C335.47 725.447 334.163 727.335 333.235 729.414C331.428 730.114 330.623 732.866 330.238 736.48C328.441 738.388 328.015 740.548 328.739 742.903C330.007 746.543 330.446 750.42 330.024 754.252C329.304 757.752 320.174 768.317 317.177 768.383" fill="#EFCEA1"/>
<path d="M252.389 652.537C258.879 653.687 264.649 655.449 268.358 658.961C271.334 662.25 273.419 666.114 274.995 670.309C276.402 666.241 277.905 662.414 280.134 660.46C282.102 657.736 284.04 655.65 285.915 654.892" fill="#EFCEA1"/>
<path d="M166.009 702.221C172.901 705.373 177.755 709.18 180.141 713.783C180.65 716.126 189.134 714.64 192.774 712.499C190.883 702.964 195.255 688.569 209.261 664.322" fill="#EFCEA1"/>
<path d="M243.092 758.106C215.597 748.747 206.514 716.719 213.972 664.322Z" fill="#EFCEA1"/>
<path d="M270.499 579.746C270.994 580.439 270.871 581.155 270.285 581.887L269.214 582.529C267.829 582.887 266.473 582.529 265.146 581.459C263.692 580.238 263.249 578.889 263.861 577.39C263.861 577.39 261.078 575.677 263.005 568.612C264.932 561.546 277.565 561.546 277.565 561.546C281.346 564.156 283.988 567.194 285.273 570.753C287.414 576.609 287.236 574.954 287.628 583.6C287.842 584.75 287.718 585.837 286.986 586.812C286.38 587.58 285.196 587.668 283.774 587.454L276.494 585.741C274.372 585.527 273.366 584.959 272.854 584.242L270.499 579.746Z" fill="#EFCEA1"/>
<path d="M292.767 554.052C292.767 554.052 288.056 553.837 287.628 550.197C287.2 546.557 286.129 548.056 285.915 546.129C285.701 544.202 286.772 542.489 287.628 542.275C288.485 542.061 289.769 542.275 289.769 542.275C289.769 542.275 289.769 539.063 295.765 538.207C301.76 537.35 304.758 539.063 306.685 538.207C308.612 537.35 312.466 536.708 314.393 537.136C316.32 537.565 322.315 541.419 323.172 546.343C324.028 551.268 323.6 557.049 323.172 558.976C322.744 560.903 321.673 564.757 322.315 565.828C322.958 566.899 331.308 583.6 335.162 585.313C339.016 587.026 342.871 587.882 344.155 589.809C345.44 591.736 348.438 598.374 348.652 612.292C348.866 626.209 348.652 628.779 348.652 628.779C348.652 628.779 338.588 639.27 337.089 639.699C335.591 640.127 339.231 651.689 339.231 651.689C339.231 651.689 349.722 658.541 350.793 662.609C351.864 666.678 349.08 668.176 349.08 668.176C349.08 668.176 349.722 670.532 349.294 671.602C348.866 672.673 347.581 673.958 347.581 673.958L360 721.706C360 721.706 352.896 729.737 352.078 726.845C349.294 716.995 342.014 720.635 342.014 720.635L308.398 700.936L294.052 678.24C294.052 678.24 295.336 668.605 299.191 664.322C303.045 660.04 302.831 649.548 301.974 645.052C301.118 640.555 297.049 625.781 297.049 625.781C297.049 625.781 288.913 632.205 285.915 633.489C282.918 634.774 265.788 639.056 264.504 638.628C263.219 638.2 261.292 636.487 261.292 634.988C261.292 633.489 261.506 630.492 264.289 628.993C267.073 627.494 277.779 619.572 279.278 617.859C280.776 616.146 291.696 608.438 292.553 606.939C293.409 605.44 290.84 598.802 292.553 595.376C294.266 591.95 294.052 590.023 298.334 587.454C302.616 584.885 306.471 582.743 306.471 582.743C306.471 582.743 301.332 583.386 300.689 582.529C300.047 581.673 297.906 578.675 297.264 575.892C296.621 573.108 294.908 566.899 294.266 566.899C293.624 566.899 291.911 559.619 291.911 558.548C291.911 557.64 292.767 554.052 292.767 554.052Z" fill="#FF8641"/>
<path d="M291.5 558.5C291.5 558.5 292.787 551.356 294.5 550.5C296.213 549.644 300.689 550.197 303.045 551.91C304.055 552.645 305.331 554.458 306.513 556.555C308.085 559.338 309.494 562.627 309.896 564.543C310.753 568.612 308.184 567.969 307.327 573.75L305.186 578.033L300.5 583" fill="#EFCEA1"/>
<path d="M291.5 558.5C291.5 558.5 292.787 551.356 294.5 550.5C296.213 549.644 300.689 550.197 303.045 551.91C304.055 552.645 305.331 554.458 306.513 556.555C308.085 559.338 309.494 562.627 309.896 564.543C310.753 568.612 308.184 567.969 307.327 573.75L305.186 578.033L300.5 583L297 576C295 571.5 295.5 569.5 295 567.5C293.5 566.375 293.5 566 293.5 565.5L291.5 558.5Z" fill="#EFCEA1"/>
<path d="M306.256 555.979C306.256 555.979 308.398 552.553 309.682 553.838C310.967 555.122 311.609 557.049 311.609 558.762C311.609 560.475 309.682 563.901 309.682 563.901" fill="#EFCEA1"/>
<path d="M311.105 560C310.236 561.392 315.015 571.826 316.101 571.971C320.228 572.527 322 565.011 322 565.011" fill="#EFCEA1"/>
<path d="M423 737.392L645.432 829.162L785.006 834.592L1525.01 872.092L1454.5 918.5L623 906.5L322 779.392L423 737.392Z" fill="#EFCEA1"/>
<rect x="378" y="814.5" width="133" height="25" transform="rotate(-30 378 814.5)" fill="#0F2228"/>
<rect x="459.845" y="846.365" width="133" height="25" transform="rotate(-38.1894 459.845 846.365)" fill="#0F2228"/>
<path d="M260.558 649C255.058 659.5 231.058 674.5 239.058 680.5C249.058 681.3 258.558 679.833 260.558 674.5C259.225 680.333 262.358 691.5 265.558 689.5C269.058 691 274.558 689.5 276.558 680.5C276.558 686.5 283.058 695 290.058 689.5C297.058 684 285.558 667 285.558 664C285.558 661.6 295.891 684 301.058 693L308.058 702.5L326.058 713.5L344.058 722C346.891 719.167 352.358 715.2 351.558 722C350.558 730.5 352.558 737.5 344.058 739.5C335.558 741.5 334.558 770.5 326.058 755C314.058 761.4 254.391 757.667 226.058 755C217.391 754.167 199.058 744.7 195.058 713.5C190.058 674.5 187.558 724.5 178.558 710.5C165.758 699.3 167.225 696.5 169.558 696.5L199.558 685C201.558 690.333 205.758 697.8 206.558 685C207.558 669 231.058 695.5 217.058 678C211.903 671.556 229.5 666.5 229.5 666.5C229.5 666.5 250.5 656 260.558 649Z" fill="#FF8641"/>
<rect width="1440" height="84" fill="#3F858C"/>
</g>
<defs>
<linearGradient id="paint0_linear" x1="791" y1="-71" x2="791" y2="515.13" gradientUnits="userSpaceOnUse">
<stop offset="0.307292" stop-color="#3E858B"/>
<stop offset="0.442708" stop-color="#3E858B"/>
<stop offset="0.822917" stop-color="#A7A176"/>
<stop offset="1" stop-color="#C3A871"/>
</linearGradient>
</defs>
</svg>
