<svg width="388" height="663" viewBox="0 0 388 663" fill="none" xmlns="http://www.w3.org/2000/svg">
<path d="M380.614 170.277L380.901 171.322L385.346 163.165L302.361 129.085L220.239 166.76L221.507 278.374L205.846 266.007L91.8145 293.616L89.749 59.2906L99.4619 48.3619L-28.0479 1L-108.196 66.572L-114 640.327L-33.0678 662.014L387.411 635.438L380.901 171.322" fill="#16272D"/>
<path d="M380.614 170.277L380.901 171.322M380.901 171.322L385.346 163.165L302.361 129.085L220.239 166.76L221.507 278.374L205.846 266.007L91.8145 293.616L89.749 59.2906L99.4619 48.3619L-28.0479 1L-108.196 66.572L-114 640.327L-33.0678 662.014L387.411 635.438L380.901 171.322Z" stroke="#266061" stroke-miterlimit="10"/>
<path d="M303.067 344.037L221.507 278.374" stroke="#16272D" stroke-miterlimit="10"/>
<g opacity="0.5">
<path opacity="0.3" d="M175.335 467.455V355.031C175.335 355.031 172.446 322.35 203.127 327.226C226.985 330.978 223.39 373.712 223.39 373.712L226.985 475.743L175.335 467.455Z" fill="#266061" stroke="#266061" stroke-width="2" stroke-miterlimit="10"/>
<path opacity="0.3" d="M250.28 475.704V401.19C250.28 401.19 248.75 377.947 273.523 377.947C298.295 377.947 294.439 426.826 294.439 426.826L294.648 485.312L250.28 475.704Z" fill="#266061" stroke="#266061" stroke-width="2" stroke-miterlimit="10"/>
<path opacity="0.3" d="M100.442 460.357V378C100.442 378 103.318 350.155 128.287 350.155C153.256 350.155 154.223 401.243 154.223 401.243V467.115L100.442 460.357Z" fill="#266061" stroke="#266061" stroke-width="2" stroke-miterlimit="10"/>
<path opacity="0.3" d="M179.27 646.275V546.401C179.27 546.401 179.152 520.896 206.108 520.857C235.247 520.857 229.887 599.135 229.887 599.135L230.227 641.307L179.27 646.275Z" fill="#266061" stroke="#266061" stroke-width="2" stroke-miterlimit="10"/>
<path opacity="0.3" d="M100.442 650.38V539.498C100.442 539.498 100.442 509.954 132.026 515.968C157.53 520.844 154.249 579.487 154.249 579.487V646.262L100.442 650.38Z" fill="#266061" stroke="#266061" stroke-width="2" stroke-miterlimit="10"/>
<path opacity="0.3" d="M254.163 641.307V545.538C254.163 545.538 256.777 518.334 278.138 526.622C295.498 533.341 294.674 569.212 294.674 569.212V640.327L254.163 641.307Z" fill="#266061" stroke="#266061" stroke-width="2" stroke-miterlimit="10"/>
<path opacity="0.3" d="M320.388 236.594V184.735C320.388 184.735 318.467 173.205 326.153 173.205C333.84 173.205 335.762 187.585 335.762 187.585V242.829L320.388 236.594Z" fill="#266061" stroke="#266061" stroke-width="2" stroke-miterlimit="10"/>
<path opacity="0.3" d="M352.076 247.81V203.193C352.076 203.193 349.762 182.042 357.031 184.016C364.299 185.99 365.306 198.893 365.306 198.893V253.797L352.076 247.81Z" fill="#266061" stroke="#266061" stroke-width="2" stroke-miterlimit="10"/>
<path opacity="0.3" d="M290.596 238.202V189.637C290.596 189.637 291.263 175.1 280.36 175.427C269.458 175.754 272.517 206.801 272.517 206.801V244.15L290.596 238.202Z" fill="#266061" stroke="#266061" stroke-width="2" stroke-miterlimit="10"/>
<path opacity="0.3" d="M256.555 249.47V197.18C256.555 197.18 256.228 188.251 247.3 188.251C238.371 188.251 239.704 218.828 239.704 218.828L239.626 259.118L256.555 249.47Z" fill="#266061" stroke="#266061" stroke-width="2" stroke-miterlimit="10"/>
<path opacity="0.3" d="M344.795 632.261V604.234C344.795 604.234 344.363 578.951 351.514 582.86C357.684 586.233 356.978 607.005 356.978 607.005L356.743 631.229L344.795 632.261Z" fill="#266061" stroke="#266061" stroke-width="2" stroke-miterlimit="10"/>
<path opacity="0.3" d="M362.391 630.562L361.227 594.298C361.227 594.298 361.227 582.35 369.071 584.795C375.973 586.912 374.823 615.188 374.823 615.188L375.071 629.568L362.391 630.562Z" fill="#266061" stroke="#266061" stroke-width="2" stroke-miterlimit="10"/>
<path opacity="0.3" d="M51.917 153.413V85.9848C51.917 85.9848 52.8713 79.3047 60.8194 79.9453C68.7675 80.5858 67.1857 96.482 67.1857 96.482L67.3165 158.185L51.917 153.413Z" fill="#266061" stroke="#266061" stroke-width="2" stroke-miterlimit="10"/>
<path opacity="0.3" d="M20.9741 143.766L39.3541 151.243L40.3085 89.0568C40.3085 89.0568 40.0732 71.7357 31.9943 71.0167C23.9155 70.2977 22.5036 78.8602 22.5036 78.8602L20.9741 143.766Z" fill="#266061" stroke="#266061" stroke-width="2" stroke-miterlimit="10"/>
<path opacity="0.3" d="M8.01918 140.157V75.762C8.01918 75.762 9.92778 61.9966 0.175644 61.0554C-9.57649 60.1142 -9.78564 65.5654 -9.78564 65.5654V135.817L8.01918 140.157Z" fill="#266061" stroke="#266061" stroke-width="2" stroke-miterlimit="10"/>
<path opacity="0.3" d="M27.0267 640.327V588.272C27.0267 588.272 26.007 577.984 34.7526 576.441C46.1388 574.441 43.485 598.9 43.485 598.9L42.8053 640.327H27.0267Z" fill="#266061" stroke="#266061" stroke-width="2" stroke-miterlimit="10"/>
<path opacity="0.3" d="M15.7058 640.327V592.364C15.7058 592.364 16.2418 576.441 6.55503 576.441C-2.0075 576.441 -2.22974 598.9 -2.22974 598.9V641.307L15.7058 640.327Z" fill="#266061" stroke="#266061" stroke-width="2" stroke-miterlimit="10"/>
</g>
<g opacity="0.3">
<path opacity="0.3" d="M303.067 140.105L316.192 635.438" stroke="#3E858B" stroke-width="1.5" stroke-miterlimit="10"/>
<path opacity="0.3" d="M341.174 253.758L351.723 553.251" stroke="#3E858B" stroke-width="1.5" stroke-miterlimit="10"/>
<path opacity="0.3" d="M351.723 259.052L361.227 553.251" stroke="#3E858B" stroke-width="1.5" stroke-miterlimit="10"/>
<path opacity="0.3" d="M262.281 264.831V311.199" stroke="#3E858B" stroke-width="1.5" stroke-miterlimit="10"/>
<path opacity="0.3" d="M272.085 259.052V319.095" stroke="#3E858B" stroke-width="1.5" stroke-miterlimit="10"/>
<path opacity="0.3" d="M8.17627 165.205L6.73828 525.053" stroke="#3E858B" stroke-width="1.5" stroke-miterlimit="10"/>
<path opacity="0.3" d="M43.7598 531.55V173.009" stroke="#3E858B" stroke-width="1.5" stroke-miterlimit="10"/>
</g>
</svg>
